<?xml version="1.0" encoding="UTF-8" standalone="no"?>
<!-- Created with Inkscape (http://www.inkscape.org/) -->

<svg
   xmlns:svg="http://www.w3.org/2000/svg"
   xmlns="http://www.w3.org/2000/svg"
   xmlns:xlink="http://www.w3.org/1999/xlink"
   version="1.1"
   width="288"
   height="288"
   id="svg2">
  <defs
     id="defs6" />
  <g
     id="g2868">
    <path
       d="M 20,-5.5159475 20,293.51595"
       id="path2818"
       style="fill:none;stroke:#ffffff;stroke-width:0.5px" />
    <use
       transform="translate(247.99999,0)"
       id="use2826"
       x="0"
       y="0"
       width="288"
       height="288"
       xlink:href="#path2818" />
    <use
       transform="translate(24.799999,0)"
       id="use2828"
       x="0"
       y="0"
       width="288"
       height="288"
       xlink:href="#path2818" />
    <use
       transform="translate(49.599999,0)"
       id="use2830"
       x="0"
       y="0"
       width="288"
       height="288"
       xlink:href="#path2818" />
    <use
       transform="translate(124,0)"
       id="use2832"
       x="0"
       y="0"
       width="288"
       height="288"
       xlink:href="#path2818" />
    <use
       transform="translate(148.8,0)"
       id="use2834"
       x="0"
       y="0"
       width="288"
       height="288"
       xlink:href="#path2818" />
    <use
       transform="translate(173.6,0)"
       id="use2836"
       x="0"
       y="0"
       width="288"
       height="288"
       xlink:href="#path2818" />
    <use
       transform="translate(198.4,0)"
       id="use2838"
       x="0"
       y="0"
       width="288"
       height="288"
       xlink:href="#path2818" />
    <use
       transform="translate(223.2,0)"
       id="use2840"
       x="0"
       y="0"
       width="288"
       height="288"
       xlink:href="#path2818" />
    <use
       transform="translate(74.400001,0)"
       id="use2842"
       x="0"
       y="0"
       width="288"
       height="288"
       xlink:href="#path2818" />
    <use
       transform="translate(99.199997,0)"
       id="use2844"
       x="0"
       y="0"
       width="288"
       height="288"
       xlink:href="#path2818" />
  </g>
  <g
     id="g2883">
    <path
       d="m 293.51595,268 -299.0319,0"
       id="use2846"
       style="fill:none;stroke:#ffffff;stroke-width:0.5px" />
    <use
       transform="translate(0,-247.99999)"
       id="use2850"
       x="0"
       y="0"
       width="288"
       height="288"
       xlink:href="#use2846" />
    <use
       transform="translate(0,-223.19999)"
       id="use2852"
       x="0"
       y="0"
       width="288"
       height="288"
       xlink:href="#use2846" />
    <use
       transform="translate(0,-198.4)"
       id="use2854"
       x="0"
       y="0"
       width="288"
       height="288"
       xlink:href="#use2846" />
    <use
       transform="translate(0,-49.6)"
       id="use2856"
       x="0"
       y="0"
       width="288"
       height="288"
       xlink:href="#use2846" />
    <use
       transform="translate(0,-74.399994)"
       id="use2858"
       x="0"
       y="0"
       width="288"
       height="288"
       xlink:href="#use2846" />
    <use
       transform="translate(0,-99.199999)"
       id="use2860"
       x="0"
       y="0"
       width="288"
       height="288"
       xlink:href="#use2846" />
    <use
       transform="translate(0,-124)"
       id="use2862"
       x="0"
       y="0"
       width="288"
       height="288"
       xlink:href="#use2846" />
    <use
       transform="translate(0,-173.6)"
       id="use2864"
       x="0"
       y="0"
       width="288"
       height="288"
       xlink:href="#use2846" />
    <use
       transform="translate(0,-148.79999)"
       id="use2866"
       x="0"
       y="0"
       width="288"
       height="288"
       xlink:href="#use2846" />
    <use
       transform="translate(0,-24.799999)"
       id="use2881"
       x="0"
       y="0"
       width="288"
       height="288"
       xlink:href="#use2846" />
  </g>
</svg>
